<svg xmlns="http://www.w3.org/2000/svg" xmlns:xlink="http://www.w3.org/1999/xlink" viewBox="0 0 394 408.94"><defs><style>.cls-1,.cls-10,.cls-11,.cls-2,.cls-3,.cls-4,.cls-5,.cls-6,.cls-7,.cls-8,.cls-9{fill-rule:evenodd;}.cls-1,.cls-3,.cls-4{opacity:0.3;}.cls-1{fill:url(#New_Gradient_Swatch_3);}.cls-2{fill:url(#New_Gradient_Swatch_3-2);}.cls-3,.cls-5{fill:#f9fcba;}.cls-4{fill:url(#New_Gradient_Swatch_3-3);}.cls-6{fill:url(#New_Gradient_Swatch_3-4);}.cls-7,.cls-8{fill:#01052d;}.cls-7{opacity:0.1;}.cls-8{opacity:0.2;}.cls-9{fill:url(#New_Gradient_Swatch_3-5);}.cls-10{fill:url(#New_Gradient_Swatch_3-6);}.cls-11{fill:url(#New_Gradient_Swatch_3-7);}.cls-12{font-size:40px;fill:#ebf2fa;font-family:SFCompactDisplay-Bold, SF Compact Display;font-weight:700;}.cls-13{letter-spacing:0em;}.cls-14{letter-spacing:-0.01em;}</style><linearGradient id="New_Gradient_Swatch_3" x1="-1472.89" y1="2063.98" x2="-1494.57" y2="1922.4" gradientTransform="translate(-165.55 -2163.9) rotate(-45)" gradientUnits="userSpaceOnUse"><stop offset="0" stop-color="#88cf2b"/><stop offset="0.98" stop-color="#389a2c"/><stop offset="1" stop-color="#36992c"/></linearGradient><linearGradient id="New_Gradient_Swatch_3-2" x1="-1427.16" y1="2074.61" x2="-1516.73" y2="1927.94" xlink:href="#New_Gradient_Swatch_3"/><linearGradient id="New_Gradient_Swatch_3-3" x1="138.97" y1="294.3" x2="254.9" y2="294.3" gradientTransform="matrix(1, 0, 0, 1, 0, 0)" xlink:href="#New_Gradient_Swatch_3"/><linearGradient id="New_Gradient_Swatch_3-4" x1="-1660.21" y1="-4143.7" x2="-1802.49" y2="-4009.81" gradientTransform="translate(-3859.97 1876.61) rotate(90)" xlink:href="#New_Gradient_Swatch_3"/><linearGradient id="New_Gradient_Swatch_3-5" x1="-1818.04" y1="-4038.23" x2="-1730.18" y2="-4163.11" gradientTransform="translate(-3859.97 1876.61) rotate(90)" xlink:href="#New_Gradient_Swatch_3"/><linearGradient id="New_Gradient_Swatch_3-6" x1="-1792.78" y1="-3893.78" x2="-1728.99" y2="-4186.13" gradientTransform="translate(-3859.97 1876.61) rotate(90)" xlink:href="#New_Gradient_Swatch_3"/><linearGradient id="New_Gradient_Swatch_3-7" x1="166.67" y1="178.63" x2="272.55" y2="76.73" gradientTransform="matrix(1, 0, 0, 1, 0, 0)" xlink:href="#New_Gradient_Swatch_3"/></defs><title>lc_logo_dark_bg</title><g id="Layer_2" data-name="Layer 2"><g id="Layer_1-2" data-name="Layer 1"><path class="cls-1" d="M253.93,278.3c-20.6,17.22-70.24-20.46-100.66,11.54-13.77,14.49-11.5,30.32-8.68,27.42,12.41-12.8,30.09-7.69,45.68-4.38s35.31,6.79,49.11-1.25C259.19,300.09,256.68,276,253.93,278.3Z"/><path class="cls-2" d="M253.93,278.3c-23,13.81-66.21-31.11-101.23-4.22-15.86,12.17-16.06,28.17-12.84,25.74,14.26-10.72,30.93-2.93,45.82,2.76s33.82,12.19,48.71,6.39C255.75,300.64,257,276.46,253.93,278.3Z"/><path class="cls-3" d="M152.7,274.08c-15.86,12.17-16.06,28.17-12.84,25.74-1.57-1.15.81-8,1.42-9.45a38.68,38.68,0,0,1,12.22-15.25c14.62-11.23,30.78-9.68,47.42-4.68,15,4.5,40.55,16.76,53,7.86C230.91,292.11,187.72,247.19,152.7,274.08Z"/><path class="cls-3" d="M233.91,307.74c-14.68,5.73-33.76-1-47.76-6.39-11.91-4.55-25-9.54-37.24-6,12-3.17,24.94,2.68,36.77,7.2,15,5.71,33.82,12.19,48.71,6.39,18.81-7.34,22-27,20.43-30.28C256,291.51,243.65,304,233.91,307.74Z"/><path class="cls-4" d="M214.2,294.89c-19.53-3.94-36.29-15.84-55.36-10.84-8.11,2.12-15.05,7.19-19.87,15.95a.63.63,0,0,0,.49,0l.34-.17h0l0,0a26.08,26.08,0,0,1,9-4.44c12.27-3.57,25.33,1.42,37.24,6,14,5.35,33.08,12.12,47.76,6.39,9.74-3.79,22.08-16.23,20.91-29.05C247.91,295.87,228,297.66,214.2,294.89Z"/><path class="cls-5" d="M189.75,332.08l-.56.19.56-.19"/><path class="cls-6" d="M166,104.67c89.84-14.24,100.54,95.23,28.3,106.94,26.5,38.59,60.45-3,76.17-25.51,15.22-21.84,8.78-50.42,8.36-52.22A85.84,85.84,0,0,0,237.13,82h0C206.21,66,206.06,66.54,206.06,66.54"/><path class="cls-7" d="M242.93,225.6c18.33-12.22,32.11-31.66,36.43-53.27a95,95,0,0,0,1-30.91h0a75.55,75.55,0,0,0-1.57-8l.54-.27A85.84,85.84,0,0,0,239,82.1a12.32,12.32,0,0,0-.93,3.31c53.28,45.49,35.55,103.9-9.15,108.07-7,7.7-19,16.94-33.3,18-10.64.76-6.6,14.35,5.38,28a82.35,82.35,0,0,0,42-13.84Z"/><path class="cls-8" d="M281.67,144.19c.07.49.14,1,.2,1.47C281.81,145.17,281.74,144.68,281.67,144.19Z"/><path class="cls-8" d="M281,140.52l.15.81c-.05-.27-.08-.55-.13-.83Z"/><path class="cls-8" d="M281.19,141.33c.18.95.34,1.9.48,2.86C281.53,143.23,281.37,142.28,281.19,141.33Z"/><path class="cls-8" d="M281.87,145.66c.13,1,.24,2,.33,2.93C282.11,147.61,282,146.63,281.87,145.66Z"/><path class="cls-8" d="M282.51,153.18c0,.41.05.82.06,1.23C282.56,154,282.53,153.59,282.51,153.18Z"/><path class="cls-8" d="M282.57,154.41c0,1.47.05,2.94,0,4.41C282.62,157.35,282.61,155.88,282.57,154.41Z"/><path class="cls-8" d="M275.8,150.24v.1c.33,33.4-29.32,62.29-64.91,56.36a76.92,76.92,0,0,1-15.33,4.76,51.13,51.13,0,0,0,9,2.35,59.77,59.77,0,0,0,70.86-67.15"/><path class="cls-8" d="M282.33,150c.09,1,.14,2.1.18,3.16C282.47,152.12,282.42,151.07,282.33,150Z"/><path class="cls-8" d="M282.2,148.59c.05.48.1.95.13,1.43C282.3,149.54,282.25,149.07,282.2,148.59Z"/><path class="cls-9" d="M194.82,68.17c4.34,2.23,8.69,4.37,13,6.18,9.4,4,17.88,8,26.76,12.79a79.1,79.1,0,0,1,40.85,59.49h0l3.36-.73,2.28-5.4h0a85.81,85.81,0,0,0-43.39-59.12h0C225.72,74.44,211.9,69,197,62.78"/><path class="cls-10" d="M280.93,173.5a85.26,85.26,0,0,0,.13-33,42.54,42.54,0,0,1-5.68,6.16,59.76,59.76,0,1,1-117.74-3.15c7.56-37.82,27.65-54.15,45.86-74.17C215.6,56,232.1,39.77,230.08,14.92c-1-11.76-8.79-17.6-9.57-13.73-9.87,49.39-91.18,57.43-107.44,138.75A85.59,85.59,0,0,0,280.93,173.5Z"/><path class="cls-11" d="M134.76,151.27c2.05-55.33,53.76-85.46,74.61-108s12-43.16,12-43.16a1.36,1.36,0,0,0-.83,1.12c-9.87,49.39-91.18,57.43-107.44,138.75a85.6,85.6,0,0,0,145.27,76.48C209,255.52,132.19,220.42,134.76,151.27Z"/><path class="cls-5" d="M216,14.07c.2-.37.37-.75.56-1.13-.18.38-.37.76-.56,1.13"/><path class="cls-3" d="M275.42,146.63l0,0a59.76,59.76,0,1,1-117.74-3.15c7.56-37.82,27.65-54.15,45.86-74.17C215.6,56,232.1,39.77,230.08,14.92c-1-11.76-8.79-17.6-9.57-13.73C225.9,1.82,227.64,11,228,15c.89,10.9-2.63,20.74-8.27,30-5.08,8.33-11.74,15.28-18.27,22.45-3,3.28-6,6.48-9.08,9.7-8.06,8.52-15.76,17-22.1,26.9A111.33,111.33,0,0,0,154.89,143,62.57,62.57,0,0,0,204,216.56c16.24,3.24,33.89-1.4,45.91-9.3C269.58,194,280.68,163.88,275.42,146.63Z"/><path class="cls-3" d="M280.93,173.5a85.26,85.26,0,0,0,.13-33h0c-.48-2.48-1.06-4.91-1.75-7.32.31,1.61.65,5.62,1,8.23h0a95,95,0,0,1-1,30.91c-4.32,21.61-18.1,41-36.43,53.27a82.76,82.76,0,0,1-127.11-85.11,112.45,112.45,0,0,1,19-44.2c8.29-11.57,18.45-21.23,29.44-30.19,10.16-8.28,20.92-15.81,31-24.17,9-7.48,18.31-20.81,20.68-27.71l.07-.12C196,52.74,127.8,66.25,113.07,139.94A85.59,85.59,0,0,0,280.93,173.5Z"/><text class="cls-12" transform="translate(30.59 385.64)"><tspan class="cls-13">L</tspan><tspan x="20.39" y="0">IQUID CHARC</tspan><tspan class="cls-14" x="260.9" y="0">O</tspan><tspan x="287.19" y="0">AL</tspan></text></g></g></svg>