<svg xmlns="http://www.w3.org/2000/svg" xmlns:xlink="http://www.w3.org/1999/xlink" viewBox="0 0 171.21 332.27"><defs><style>.cls-1,.cls-10,.cls-11,.cls-2,.cls-3,.cls-4,.cls-5,.cls-6,.cls-7,.cls-8,.cls-9{fill-rule:evenodd;}.cls-1,.cls-3,.cls-4{opacity:0.3;}.cls-1{fill:url(#New_Gradient_Swatch_3);}.cls-2{fill:url(#New_Gradient_Swatch_3-2);}.cls-3,.cls-5{fill:#f9fcba;}.cls-4{fill:url(#New_Gradient_Swatch_3-3);}.cls-6{fill:url(#New_Gradient_Swatch_3-4);}.cls-7,.cls-8{fill:#01052d;}.cls-7{opacity:0.1;}.cls-8{opacity:0.2;}.cls-9{fill:url(#New_Gradient_Swatch_3-5);}.cls-10{fill:url(#New_Gradient_Swatch_3-6);}.cls-11{fill:url(#New_Gradient_Swatch_3-7);}</style><linearGradient id="New_Gradient_Swatch_3" x1="-1422.61" y1="1673.66" x2="-1444.29" y2="1532.07" gradientTransform="translate(-36.5 -1852.35) rotate(-45)" gradientUnits="userSpaceOnUse"><stop offset="0" stop-color="#88cf2b"/><stop offset="0.98" stop-color="#389a2c"/><stop offset="1" stop-color="#36992c"/></linearGradient><linearGradient id="New_Gradient_Swatch_3-2" x1="-1376.88" y1="1684.28" x2="-1466.45" y2="1537.62" xlink:href="#New_Gradient_Swatch_3"/><linearGradient id="New_Gradient_Swatch_3-3" x1="27.58" y1="294.3" x2="143.5" y2="294.3" gradientTransform="matrix(1, 0, 0, 1, 0, 0)" xlink:href="#New_Gradient_Swatch_3"/><linearGradient id="New_Gradient_Swatch_3-4" x1="-1219.6" y1="-3591.7" x2="-1361.88" y2="-3457.81" gradientTransform="translate(-3419.36 1436.01) rotate(90)" xlink:href="#New_Gradient_Swatch_3"/><linearGradient id="New_Gradient_Swatch_3-5" x1="-1377.43" y1="-3486.23" x2="-1289.58" y2="-3611.11" gradientTransform="translate(-3419.36 1436.01) rotate(90)" xlink:href="#New_Gradient_Swatch_3"/><linearGradient id="New_Gradient_Swatch_3-6" x1="-1352.17" y1="-3341.78" x2="-1288.39" y2="-3634.13" gradientTransform="translate(-3419.36 1436.01) rotate(90)" xlink:href="#New_Gradient_Swatch_3"/><linearGradient id="New_Gradient_Swatch_3-7" x1="55.28" y1="178.63" x2="161.15" y2="76.73" gradientTransform="matrix(1, 0, 0, 1, 0, 0)" xlink:href="#New_Gradient_Swatch_3"/></defs><title>lc_logo_color</title><g id="Layer_2" data-name="Layer 2"><g id="Layer_1-2" data-name="Layer 1"><path class="cls-1" d="M142.54,278.3c-20.6,17.22-70.24-20.46-100.66,11.54-13.78,14.49-11.5,30.32-8.69,27.42,12.42-12.8,30.1-7.69,45.69-4.38s35.3,6.79,49.11-1.25C147.8,300.09,145.28,276,142.54,278.3Z"/><path class="cls-2" d="M142.54,278.3c-23,13.81-66.22-31.11-101.23-4.22-15.86,12.17-16.07,28.17-12.84,25.74,14.25-10.72,30.92-2.93,45.81,2.76S108.1,314.77,123,309C144.35,300.64,145.61,276.46,142.54,278.3Z"/><path class="cls-3" d="M41.31,274.08c-15.86,12.17-16.07,28.17-12.84,25.74-1.58-1.15.8-8,1.41-9.45a38.62,38.62,0,0,1,12.23-15.25c14.62-11.23,30.78-9.68,47.41-4.68,15,4.5,40.55,16.76,53,7.86C119.52,292.11,76.32,247.19,41.31,274.08Z"/><path class="cls-3" d="M122.52,307.74c-14.69,5.73-33.77-1-47.77-6.39-11.9-4.55-25-9.54-37.23-6,12-3.17,24.93,2.68,36.76,7.2,15,5.71,33.82,12.19,48.71,6.39,18.81-7.34,22-27,20.43-30.28C144.59,291.51,132.25,304,122.52,307.74Z"/><path class="cls-4" d="M102.81,294.89c-19.53-3.94-36.3-15.84-55.37-10.84-8.11,2.12-15,7.19-19.86,15.95a.63.63,0,0,0,.49,0l.33-.17h0l0,0a25.91,25.91,0,0,1,9.05-4.44c12.27-3.57,25.33,1.42,37.23,6,14,5.35,33.08,12.12,47.77,6.39,9.73-3.79,22.07-16.23,20.9-29.05C136.51,295.87,116.55,297.66,102.81,294.89Z"/><path class="cls-5" d="M78.36,332.08l-.57.19.57-.19"/><path class="cls-6" d="M54.57,104.67C144.4,90.43,155.1,199.9,82.87,211.61c26.5,38.59,60.44-3,76.17-25.51,15.22-21.84,8.78-50.42,8.35-52.22A85.8,85.8,0,0,0,125.73,82h0C94.81,66,94.66,66.54,94.66,66.54"/><path class="cls-7" d="M131.54,225.6c18.33-12.22,32.1-31.66,36.43-53.27a95.32,95.32,0,0,0,1-30.91h0a75.48,75.48,0,0,0-1.56-8l.53-.27A85.86,85.86,0,0,0,127.56,82.1a11.87,11.87,0,0,0-.93,3.31c53.27,45.49,35.55,103.9-9.15,108.07-7,7.7-19,16.94-33.31,18-10.63.76-6.6,14.35,5.39,28a82.42,82.42,0,0,0,42-13.84Z"/><path class="cls-8" d="M170.27,144.19q.12.74.21,1.47Q170.39,144.92,170.27,144.19Z"/><path class="cls-8" d="M169.65,140.52l.15.81c-.05-.27-.09-.55-.14-.83Z"/><path class="cls-8" d="M169.8,141.33c.17.95.33,1.9.47,2.86C170.13,143.23,170,142.28,169.8,141.33Z"/><path class="cls-8" d="M170.48,145.66c.13,1,.23,2,.32,2.93C170.71,147.61,170.61,146.63,170.48,145.66Z"/><path class="cls-8" d="M171.12,153.18c0,.41,0,.82,0,1.23C171.16,154,171.13,153.59,171.12,153.18Z"/><path class="cls-8" d="M171.17,154.41c0,1.47.05,2.94,0,4.41C171.22,157.35,171.21,155.88,171.17,154.41Z"/><path class="cls-8" d="M164.41,150.24v.1c.34,33.4-29.32,62.29-64.91,56.36a76.71,76.71,0,0,1-15.33,4.76,51.13,51.13,0,0,0,9,2.35A59.79,59.79,0,0,0,164,146.66"/><path class="cls-8" d="M170.94,150c.08,1,.13,2.1.18,3.16C171.07,152.12,171,151.07,170.94,150Z"/><path class="cls-8" d="M170.8,148.59c0,.48.1.95.14,1.43C170.9,149.54,170.85,149.07,170.8,148.59Z"/><path class="cls-9" d="M83.43,68.17c4.34,2.23,8.68,4.37,13,6.18,9.4,4,17.89,8,26.77,12.79A79.06,79.06,0,0,1,164,146.63h0l3.37-.73,2.27-5.4h0a85.84,85.84,0,0,0-43.39-59.12h0c-12-7-25.77-12.39-40.68-18.61"/><path class="cls-10" d="M169.54,173.5a85.45,85.45,0,0,0,.12-33,43.57,43.57,0,0,1-5.67,6.16,59.76,59.76,0,1,1-117.75-3.15C53.8,105.69,73.9,89.36,92.1,69.34,104.2,56,120.71,39.77,118.68,14.92c-1-11.76-8.79-17.6-9.56-13.73C99.24,50.58,17.93,58.62,1.68,139.94A85.59,85.59,0,1,0,169.54,173.5Z"/><path class="cls-11" d="M23.36,151.27C25.41,95.94,77.12,65.81,98,43.23s12-43.16,12-43.16a1.35,1.35,0,0,0-.82,1.12C99.24,50.58,17.93,58.62,1.68,139.94A85.59,85.59,0,0,0,147,216.42C97.62,255.52,20.79,220.42,23.36,151.27Z"/><path class="cls-5" d="M104.58,14.07c.19-.37.37-.75.55-1.13-.18.38-.36.76-.55,1.13"/><path class="cls-3" d="M164,146.63l0,0a59.76,59.76,0,1,1-117.75-3.15C53.8,105.69,73.9,89.36,92.1,69.34,104.2,56,120.71,39.77,118.68,14.92c-1-11.76-8.79-17.6-9.56-13.73,5.39.63,7.13,9.82,7.45,13.81.89,10.9-2.62,20.74-8.27,30C103.22,53.33,96.56,60.28,90,67.45c-3,3.28-6,6.48-9.07,9.7-8.06,8.52-15.76,17-22.11,26.9A111.5,111.5,0,0,0,43.5,143a62.55,62.55,0,0,0,49.07,73.6c16.24,3.24,33.89-1.4,45.91-9.3C158.18,194,169.28,163.88,164,146.63Z"/><path class="cls-3" d="M169.54,173.5a85.45,85.45,0,0,0,.12-33h0c-.48-2.48-1.07-4.91-1.75-7.32.31,1.61.65,5.62,1,8.23h0a95.32,95.32,0,0,1-1,30.91c-4.33,21.61-18.1,41-36.43,53.27A82.76,82.76,0,0,1,4.42,140.49a112.61,112.61,0,0,1,19-44.2C31.69,84.72,41.85,75.06,52.84,66.1c10.15-8.28,20.91-15.81,31-24.17,9-7.48,18.31-20.81,20.69-27.71l.06-.12C84.55,52.74,16.41,66.25,1.68,139.94A85.59,85.59,0,1,0,169.54,173.5Z"/></g></g></svg>